<svg viewBox="0 0 105 104" fill="none" xmlns="http://www.w3.org/2000/svg">
<path d="M104.082 51.8947L104.081 52.283C90.6194 52.2599 77.9309 53.5331 68.3478 55.8463L68.2187 55.8461C62.3913 57.2601 57.8525 61.7835 56.4186 67.606L56.4183 67.7351C53.9422 77.3103 52.6267 89.9938 52.7326 103.457L52.0852 103.456C52.1082 89.9934 50.8351 77.3048 48.5219 67.7216L48.5221 67.5924C47.1081 61.7651 42.4558 57.2259 36.7623 55.7922L36.6332 55.792C27.0581 53.3158 14.3747 52.0003 0.911946 52.1062L0.91239 51.8471L0.911708 51.7179L0.912152 51.4588C14.3742 51.4818 27.0627 50.2087 36.6458 47.8954L36.775 47.8957C42.6025 46.3525 47.1414 41.8293 48.5751 36.1358L48.5753 36.0067C51.0515 26.4315 52.367 13.748 52.2611 0.285113L52.9085 0.286222C52.8854 13.7484 54.1585 26.437 56.4718 36.0202L56.4716 36.1493C57.8855 41.9767 62.4089 46.5157 68.2313 47.9496L68.3604 47.9498C77.9356 50.426 90.619 51.7415 104.082 51.6356L104.082 51.8947Z" fill="#7A40ED"/>
</svg>
