<svg width="13" height="13" viewBox="0 0 13 13" fill="none" xmlns="http://www.w3.org/2000/svg">
<path d="M12.9999 6.3208H9.92866C9.89613 3.50254 9.0187 1.10777 7.78362 0.114035C10.6923 0.700501 12.9186 3.24185 12.9998 6.3208H12.9999ZM6.32119 6.3208H3.42872C3.47746 2.99749 4.76127 0.211779 6.30497 0V6.3208H6.32119ZM6.32119 6.6792V13C4.77749 12.7882 3.49369 10.0025 3.44494 6.6792H6.32119ZM6.67869 6.6792H9.55494C9.5062 10.0025 8.2224 12.7882 6.67869 13V6.6792ZM6.67869 6.3208V0C8.2224 0.211814 9.50619 2.99749 9.55494 6.3208H6.67869ZM5.21626 0.114035C3.9813 1.10777 3.10375 3.50251 3.07122 6.3208H0C0.0812725 3.24185 2.30748 0.700501 5.2162 0.114035H5.21626ZM5.80033e-05 6.6792H3.07128C3.10381 9.49746 3.98124 11.8922 5.21632 12.886C2.3076 12.2995 0.0813653 9.75815 0.000116007 6.6792H5.80033e-05ZM7.78374 12.886C9.0187 11.8922 9.89625 9.49749 9.92878 6.6792H13C12.9187 9.75815 10.6925 12.2995 7.7838 12.886H7.78374Z" fill="white"/>
</svg>
