<svg width="13" height="13" viewBox="0 0 13 13" fill="none" xmlns="http://www.w3.org/2000/svg">
<path d="M11.15 0H1.85C0.799999 0 0 0.8 0 1.85V11.15C0 12.2 0.799999 13 1.85 13H11.15C12.2 13 13 12.2 13 11.15V1.85C13 0.8 12.2 0 11.15 0ZM6.5 10.4C8.65 10.4 10.4 8.7 10.4 6.65C10.4 6.3 10.35 5.9 10.25 5.6H11.35V10.9C11.35 11.15 11.15 11.4 10.85 11.4H2.15C1.9 11.4 1.65 11.2 1.65 10.9V5.55H2.8C2.7 5.9 2.65 6.25 2.65 6.6C2.6 8.7 4.35 10.4 6.5 10.4ZM6.5 8.9C5.1 8.9 4 7.8 4 6.45C4 5.1 5.1 4 6.5 4C7.9 4 9 5.1 9 6.45C9 7.85 7.9 8.9 6.5 8.9ZM11.3 3.55C11.3 3.85 11.05 4.1 10.75 4.1H9.35C9.05 4.1 8.8 3.85 8.8 3.55V2.2C8.8 1.9 9.05 1.65 9.35 1.65H10.75C11.05 1.65 11.3 1.9 11.3 2.2V3.55Z" fill="white"/>
</svg>
