<svg width="15" height="11" viewBox="0 0 15 11" fill="none" xmlns="http://www.w3.org/2000/svg">
<path d="M15 4.22222C15 3.88888 14.9453 3.5 14.9453 3.05556C14.8905 2.61111 14.8358 2.16666 14.781 1.77778C14.6715 1.33333 14.5073 1 14.1788 0.722224C13.9051 0.444446 13.5219 0.277774 13.1387 0.222219C11.8796 0.0555522 10.0183 0 7.50001 0C4.98176 0 3.06569 0.0555522 1.86131 0.222219C1.4781 0.277774 1.09489 0.444446 0.821168 0.722224C0.547445 1 0.328464 1.33333 0.218975 1.77778C0.109486 2.16666 0.0547479 2.55556 0.0547479 3.05556C3.33766e-06 3.5 0 3.88888 0 4.22222C0 4.55555 0 4.94444 0 5.5C0 6.05555 0 6.5 0 6.77778C0 7.11111 0.0547479 7.5 0.0547479 7.94445C0.109492 8.38889 0.16423 8.83333 0.218975 9.22222C0.328464 9.66666 0.492701 10 0.821168 10.2778C1.09489 10.5556 1.4781 10.7222 1.86131 10.7778C3.12044 10.9444 4.98176 11 7.50001 11C10.0183 11 11.9343 10.9444 13.1387 10.7778C13.5219 10.7222 13.9051 10.5556 14.1788 10.2778C14.4526 10 14.6715 9.66666 14.781 9.22222C14.8905 8.83333 14.9453 8.44445 14.9453 7.94445C15 7.5 15 7.11111 15 6.77778C15 6.44444 15 6.05555 15 5.5C15 4.94444 15 4.49999 15 4.22222ZM10.4015 5.94444L6.07665 8.66666C6.0219 8.72222 5.91241 8.77778 5.80292 8.77778C5.69344 8.77778 5.63869 8.77778 5.5292 8.72222C5.36497 8.61111 5.25548 8.44444 5.25548 8.22222V2.72222C5.25548 2.5 5.36497 2.33333 5.5292 2.22222C5.69344 2.11111 5.91241 2.11111 6.07665 2.22222L10.4015 4.94444C10.5657 5.05555 10.6752 5.22222 10.6752 5.38889C10.6752 5.55555 10.5657 5.83333 10.4015 5.94444Z" fill="white"/>
</svg>
